<svg
  viewBox="0 0 24 24"
  fill="none"
  xmlns="http://www.w3.org/2000/svg"
>
  <path
    transform="translate(-2.4, -2.4) scale(0.9)"
    d="M16,31.043215829879045C20.447697465645682,30.930213263878596,24.19492738181547,28.224257922818268,27.051446538400114,24.81323452303065C30.016659635868628,21.272417638429395,32.81380416298519,16.894276510688485,31.574696331198247,12.445177196795793C30.374439757042424,8.135575914661327,25.70283133872144,6.067858476028007,21.446839868662693,4.689520469018669C17.972439433539943,3.5643071773591886,14.37474489051131,4.208126363555937,11.093856457908956,5.8122879601927515C7.843611136813742,7.401466876469958,5.140913653691258,9.834220957395335,3.9427223583199797,13.248005059376277C2.5317499214357717,17.268026980730717,1.8313982484529765,21.86620368352369,4.2211966127176765,25.393282254235572C6.791048314304129,29.186099674362104,11.42003696579436,31.1595788646965,16,31.043215829879045"
    fill="#F59E0B"
    opacity="0.15"
  />
  <g stroke="#F59E0B" stroke-width="1.5" stroke-linecap="round" stroke-linejoin="round">
    <path d="M22 22L2 22" />
    <path d="M2 11L6.06296 7.74968M22 11L13.8741 4.49931C12.7784 3.62279 11.2216 3.62279 10.1259 4.49931L9.34398 5.12486" />
    <path d="M15.5 5.5V3.5C15.5 3.22386 15.7239 3 16 3H18.5C18.7761 3 19 3.22386 19 3.5V8.5" />
    <path d="M4 22V9.5" />
    <path d="M20 9.5V13.5M20 22V17.5" />
    <path d="M15 22V17C15 15.5858 15 14.8787 14.5607 14.4393C14.1213 14 13.4142 14 12 14C10.5858 14 9.87868 14 9.43934 14.4393M9 22V17" />
  </g>
  <g transform="translate(12, 9.5) scale(0.3) translate(-53.5, -209)">
    <path
      d="M55.5929644,215.348992 C55.0175653,215.814817 54.2783665,216.071721 53.5108177,216.071721 C52.7443189,216.071721 52.0030201,215.815817 51.4045211,215.334997 C47.6308271,212.307129 45.2284309,210.70073 45.1034811,207.405962 C44.9722313,203.919267 48.9832249,202.644743 51.442321,205.509672 C51.9400202,206.088455 52.687619,206.420331 53.4940177,206.420331 C54.3077664,206.420331 55.0606152,206.084457 55.5593644,205.498676 C57.9649106,202.67973 62.083004,203.880281 61.8950543,207.507924 C61.7270546,210.734717 59.2322586,212.401094 55.5929644,215.348992 M53.9066671,204.31012 C53.8037672,204.431075 53.6483675,204.492052 53.4940177,204.492052 C53.342818,204.492052 53.1926682,204.433074 53.0918684,204.316118 C49.3717243,199.982739 42.8029348,202.140932 43.0045345,207.472937 C43.1651842,211.71635 46.3235792,213.819564 50.0426732,216.803448 C51.0370217,217.601149 52.2739197,218 53.5108177,218 C54.7508657,218 55.9898637,217.59915 56.9821122,216.795451 C60.6602563,213.815565 63.7787513,211.726346 63.991901,207.59889 C64.2754005,202.147929 57.6173611,199.958748 53.9066671,204.31012"
      fill="#F59E0B"
    />
  </g>
</svg>
