<?xml version="1.0" encoding="utf-8"?>
<!-- Uploaded to: SVG Repo, www.svgrepo.com, Generator: SVG Repo Mixer Tools -->
<svg width="800px" height="800px" viewBox="0 0 1024 1024" class="icon"  version="1.1" xmlns="http://www.w3.org/2000/svg"><path d="M636.732782 531.08727c-37.554066 0-68.837858 26.538084-75.427584 61.350185h-58.494569c-6.588702-34.812101-37.872494-61.350185-75.427584-61.350185-42.326395 0-76.761707 35.16227-76.761707 77.488665s34.435311 75.53714 76.761707 75.53714c37.554066 0 68.837858-28.193706 75.427584-64.029692h58.494569c6.588702 35.835986 37.872494 64.393172 75.427584 64.393172 42.326395 0 76.761707-34.367735 76.761707-76.694131 0-42.327419-34.435311-76.695154-76.761707-76.695154zM427.384069 658.150415c-26.93228 0-48.848545-21.916265-48.848545-48.848545s21.916265-48.847521 48.848545-48.847521 48.848545 21.916265 48.848545 48.847521-21.916265 48.848545-48.848545 48.848545z m209.348713 0c-26.93228 0-48.848545-21.916265-48.848545-48.848545s21.916265-48.847521 48.848545-48.847521 48.847521 21.916265 48.847521 48.847521-21.915241 48.848545-48.847521 48.848545z" fill="#FF7415" /><path d="M849.32414 547.062953V441.8229c0-148.030269-96.245221-272.914586-235.493625-309.850225V106.864959c0-23.088614-16.814245-43.776217-39.901835-43.776217h-13.956581c-10.729294 0-20.49716 4.090422-27.913162 10.749772-7.416001-6.65935-17.182844-10.749772-27.913161-10.749772h-13.956581c-23.088614 0-44.274849 20.687603-44.274849 43.776217v24.906011c-105.460188 29.53602-197.690755 116.62873-226.446574 232.063609-15.743261 4.959701-25.394404 8.275041-27.383813 8.920088-34.114835 11.373318-51.109284 28.487561-51.109284 53.681284 0 30.782088 25.345257 54.39698 56.127346 54.39698h10.248068v62.457005h4.310557c-17.444958 21.501592-28.515206 39.393988-28.515206 64.407506 0 41.522645 30.379701 76.881501 70.075735 83.423104 6.73307 147.982146 129.227639 266.693458 278.838786 266.693459s272.105716-118.110292 278.838786-266.092438c39.696034-6.542627 68.208169-40.99944 68.208169-82.522085-0.001024-24.715568-8.281185-46.795655-29.782776-62.136529zM559.972099 89.709761h13.956581c7.693474 0 10.209161 9.4607 10.209161 17.155198v18.917305c-7.167197-2.41125-20.477706-3.994177-41.979299-4.605436V106.864959c0-7.693474 10.119059-17.155199 17.813557-17.155198z m-87.437759 17.155198c0-7.693474 9.960356-17.155199 17.653831-17.155198h13.956581c7.693474 0 10.368887 9.4607 10.368886 17.155198v14.252484c-13.310509 0.601021-28.668789 2.12661-41.979298 4.502024V106.864959z m58.302078 41.869743c161.611084 0 291.866703 131.477115 291.866703 293.088198v88.624442c-8.191083-3.105444-16.893084-4.884957-26.691666-4.884957-46.176204 0-83.128226-39.102181-83.128226-85.278385 0-23.088614-18.170893-43.408642-41.258483-43.408642h-56.940311c0.657334 0 1.113987-7.667877 1.113988-12.417681 0-53.870702-43.825364-96.927128-97.696066-96.927128-45.590542 0-185.388772 41.112067-266.315645 66.038555 37.960548-121.869999 149.358248-204.834403 279.049706-204.834402zM169.186811 427.083047c0-7.666853 3.353224-18.580447 32.219623-28.202922 88.578367-28.731246 268.759659-82.862015 316.694899-82.862015 38.475563 0 69.782904 30.621338 69.782904 69.097925s-31.307342 69.097925-69.782904 69.097925H197.099973c-15.394116-0.001024-27.913162-11.735774-27.913162-27.130913z m65.806134 53.750908h14.334394v45.893612c0 0.808869-7.167197 2.045723-14.334394 3.638888v-49.5325z m562.241029 181.227702h-17.534036v17.023118c0 138.523493-112.840354 251.218456-251.363848 251.218455s-251.363847-112.694962-251.363847-251.218455v-17.023118h-10.089366c-30.782088 0-55.826323-25.019662-55.826323-55.80175s25.044235-55.80175 55.826323-55.80175h10.089366v-69.624202h241.12909c38.873854 0 72.416337-21.501592 88.135025-56.313693h65.387364c7.693474 0 13.956581 7.936135 13.956581 15.629609 0 61.564177 50.08847 112.489161 111.652647 112.489161 30.782088 0 55.826323 23.929224 55.826323 54.711313 0.001024 30.783112-25.043211 54.711312-55.825299 54.711312z" fill="#262626" /><path d="M448.319452 609.30187c0-11.544307-9.391076-20.934359-20.935383-20.934359s-20.935383 9.391076-20.935383 20.934359c0 11.544307 9.391076 20.935383 20.935383 20.935383s20.935383-9.391076 20.935383-20.935383zM636.732782 588.367511c-11.544307 0-20.935383 9.391076-20.935383 20.934359 0 11.544307 9.391076 20.935383 20.935383 20.935383 11.544307 0 20.934359-9.391076 20.934359-20.935383 0.001024-11.543283-9.390052-20.934359-20.934359-20.934359zM424.41173 776.781864c0 57.720511 46.715792 104.674868 104.436303 104.674869s104.436303-46.953333 104.436303-104.674869v-36.903898h-208.872606v36.903898z m107.647207 74.589022c-29.756155 0-55.554994-13.200953-68.287007-41.869742h136.574015c-12.732014 28.668789-38.530853 41.869743-68.287008 41.869742z m-78.978418-84.872926h152.558913v10.282881c0 2.354936 3.03582 3.027629 2.826948 3.027628H455.650471c-0.208873 0-2.569952-0.671669-2.569952-3.027628v-10.282881zM507.346441 670.25274h41.979299v26.621018h-41.979299zM532.058937 211.539828c66.539236 0 129.814325 28.778345 173.598733 78.962036a231.852688 231.852688 0 0 1 23.953798 32.922009 13.965796 13.965796 0 0 0 11.980482 6.766858c2.446062 0 4.919769-0.640952 7.176412-1.98941 6.603036-3.972675 8.742957-12.545667 4.777449-19.15587a259.933767 259.933767 0 0 0-26.856512-36.888541c-49.086086-56.262499-120.028029-88.530245-194.629338-88.530244-7.707809 0-13.956581 6.248772-13.956581 13.956581-0.001024 7.706785 6.247748 13.956581 13.955557 13.956581zM259.905099 588.367511c-11.544307 0-20.935383 9.391076-20.935384 20.934359 0 11.544307 9.391076 20.935383 20.935384 20.935383s20.935383-9.391076 20.935383-20.935383c0-11.543283-9.391076-20.934359-20.935383-20.934359zM804.211752 588.367511c-11.544307 0-20.935383 9.391076-20.935383 20.934359 0 11.544307 9.391076 20.935383 20.935383 20.935383 11.544307 0 20.934359-9.391076 20.93436-20.935383 0.001024-11.543283-9.390052-20.934359-20.93436-20.934359z" fill="#262626" /><path d="M518.102357 344.126834c-13.956581 0-139.565809 27.913162-139.565809 27.913162-20.935383 6.977778-27.913162 10.823492-27.913162 26.240133 0 15.415617 12.497544 26.240133 27.913162 26.240133h139.565809c23.12445 0 41.869743-17.072264 41.869742-40.196714s-18.746316-40.196714-41.869742-40.196714z" fill="#E0E0E0" /></svg>